<?xml version="1.0" encoding="UTF-8" standalone="no"?>
<svg
   height="48"
   width="48"
   version="1.1"
   id="svg4"
   sodipodi:docname="commute-w-maskable.svg"
   inkscape:version="1.2.1 (9c6d41e410, 2022-07-14, custom)"
   inkscape:export-filename="icono-bus-maskable.png"
   inkscape:export-xdpi="1024"
   inkscape:export-ydpi="1024"
   xmlns:inkscape="http://www.inkscape.org/namespaces/inkscape"
   xmlns:sodipodi="http://sodipodi.sourceforge.net/DTD/sodipodi-0.dtd"
   xmlns="http://www.w3.org/2000/svg"
   xmlns:svg="http://www.w3.org/2000/svg">
  <defs
     id="defs8" />
  <sodipodi:namedview
     id="namedview6"
     pagecolor="#ffffff"
     bordercolor="#000000"
     borderopacity="0.25"
     inkscape:showpageshadow="2"
     inkscape:pageopacity="0.0"
     inkscape:pagecheckerboard="0"
     inkscape:deskcolor="#d1d1d1"
     showgrid="false"
     inkscape:zoom="9.4649189"
     inkscape:cx="21.289142"
     inkscape:cy="31.960126"
     inkscape:window-width="1920"
     inkscape:window-height="1011"
     inkscape:window-x="0"
     inkscape:window-y="32"
     inkscape:window-maximized="1"
     inkscape:current-layer="svg4" />
  <rect
     style="fill:#5e35b1;fill-opacity:1;stroke:none;stroke-linecap:round"
     id="rect897"
     width="48"
     height="48"
     x="0"
     y="0"
     ry="8" />
  <path
     fill="#5e35b1"
     d="m 21.330515,35.873231 v -9.044374 l 2.271054,-6.693634 q 0.07969,-0.278901 0.318745,-0.478116 0.239058,-0.199215 0.677332,-0.199215 h 12.072446 q 0.438274,0 0.657411,0.179293 0.219136,0.179294 0.338665,0.498038 l 2.271055,6.693634 v 9.044374 q 0,0.358587 -0.25898,0.617567 -0.25898,0.25898 -0.617568,0.25898 h -0.876547 q -0.358587,0 -0.617567,-0.25898 -0.25898,-0.25898 -0.25898,-0.617567 V 34.080293 H 23.960157 v 1.792938 q 0,0.358587 -0.25898,0.617567 -0.25898,0.25898 -0.617567,0.25898 h -0.876548 q -0.358587,0 -0.617567,-0.25898 -0.25898,-0.25898 -0.25898,-0.617567 z M 23.442197,25.633565 H 37.825541 L 36.311505,21.051614 H 24.956233 Z m -0.51796,1.593723 v 5.259283 z m 2.669485,4.223364 q 0.677332,0 1.115606,-0.438274 0.438273,-0.438274 0.438273,-1.115606 0,-0.677332 -0.438273,-1.115605 -0.438274,-0.438274 -1.115606,-0.438274 -0.677332,0 -1.115605,0.438274 -0.438274,0.438273 -0.438274,1.115605 0,0.677332 0.438274,1.115606 0.438273,0.438274 1.115605,0.438274 z m 10.080294,0 q 0.677332,0 1.115605,-0.438274 0.438274,-0.438274 0.438274,-1.115606 0,-0.677332 -0.438274,-1.115605 -0.438273,-0.438274 -1.115605,-0.438274 -0.677332,0 -1.115606,0.438274 -0.438274,0.438273 -0.438274,1.115605 0,0.677332 0.438274,1.115606 0.438274,0.438274 1.115606,0.438274 z m -24.264422,5.299126 v -0.836704 l 2.271054,-2.271054 q -2.271054,0 -3.9444623,-1.374586 -1.6734084,-1.374585 -1.6734084,-3.52611 V 15.672801 q 0,-2.629642 2.0718387,-3.52611 2.071839,-0.896469 8.20767,-0.896469 5.697557,0 7.988533,0.976155 2.290976,0.976155 2.290976,3.446424 V 18.2626 h -2.390584 v -3.067916 h -15.77785 v 10.717783 h 9.681862 v 10.837311 z m 1.075763,-6.454575 q 0.677332,0 1.115605,-0.438274 0.438274,-0.438273 0.438274,-1.115605 0,-0.677332 -0.438274,-1.115606 -0.438273,-0.438273 -1.115605,-0.438273 -0.677332,0 -1.115606,0.438273 -0.438274,0.438274 -0.438274,1.115606 0,0.677332 0.438274,1.115605 0.438274,0.438274 1.115606,0.438274 z m 10.43888,2.191368 H 38.3435 V 27.227288 H 22.924237 Z"
     id="path2"
     style="fill:#ffffff;stroke-width:0.796861" />
</svg>
