<?xml version="1.0" encoding="UTF-8" standalone="no"?>
<svg
   height="48"
   width="48"
   version="1.1"
   id="svg4"
   sodipodi:docname="commute-w.svg"
   inkscape:version="1.2.1 (9c6d41e410, 2022-07-14, custom)"
   xmlns:inkscape="http://www.inkscape.org/namespaces/inkscape"
   xmlns:sodipodi="http://sodipodi.sourceforge.net/DTD/sodipodi-0.dtd"
   xmlns="http://www.w3.org/2000/svg"
   xmlns:svg="http://www.w3.org/2000/svg">
  <defs
     id="defs8" />
  <sodipodi:namedview
     id="namedview6"
     pagecolor="#ffffff"
     bordercolor="#000000"
     borderopacity="0.25"
     inkscape:showpageshadow="2"
     inkscape:pageopacity="0.0"
     inkscape:pagecheckerboard="0"
     inkscape:deskcolor="#d1d1d1"
     showgrid="false"
     inkscape:zoom="8.6666667"
     inkscape:cx="9.8653846"
     inkscape:cy="24.173077"
     inkscape:window-width="1920"
     inkscape:window-height="1011"
     inkscape:window-x="0"
     inkscape:window-y="32"
     inkscape:window-maximized="1"
     inkscape:current-layer="svg4" />
  <rect
     style="fill:#5e35b1;fill-opacity:1;stroke:none;stroke-linecap:round"
     id="rect897"
     width="48"
     height="48"
     x="0"
     y="0"
     ry="8" />
  <path
     fill="#5e35b1"
     d="M20.65 38.9V27.55l2.85-8.4q.1-.35.4-.6.3-.25.85-.25H39.9q.55 0 .825.225.275.225.425.625l2.85 8.4V38.9q0 .45-.325.775T42.9 40h-1.1q-.45 0-.775-.325T40.7 38.9v-2.25H23.95v2.25q0 .45-.325.775T22.85 40h-1.1q-.45 0-.775-.325t-.325-.775Zm2.65-12.85h18.05l-1.9-5.75H25.2Zm-.65 2v6.6Zm3.35 5.3q.85 0 1.4-.55.55-.55.55-1.4 0-.85-.55-1.4-.55-.55-1.4-.55-.85 0-1.4.55-.55.55-.55 1.4 0 .85.55 1.4.55.55 1.4.55Zm12.65 0q.85 0 1.4-.55.55-.55.55-1.4 0-.85-.55-1.4-.55-.55-1.4-.55-.85 0-1.4.55-.55.55-.55 1.4 0 .85.55 1.4.55.55 1.4.55ZM8.2 40v-1.05l2.85-2.85q-2.85 0-4.95-1.725T4 29.95v-16.4q0-3.3 2.6-4.425T16.9 8q7.15 0 10.025 1.225T29.8 13.55v3.25h-3v-3.85H7V26.4h12.15V40Zm1.35-8.1q.85 0 1.4-.55.55-.55.55-1.4 0-.85-.55-1.4-.55-.55-1.4-.55-.85 0-1.4.55-.55.55-.55 1.4 0 .85.55 1.4.55.55 1.4.55Zm13.1 2.75H42v-6.6H22.65Z"
     id="path2"
     style="fill:#ffffff" />
</svg>
