<?xml version="1.0" encoding="UTF-8" standalone="no"?>
<svg
   height="48"
   width="48"
   version="1.1"
   id="svg4"
   sodipodi:docname="map-w.svg"
   inkscape:version="1.2.2 (b0a8486541, 2022-12-01)"
   xml:space="preserve"
   xmlns:inkscape="http://www.inkscape.org/namespaces/inkscape"
   xmlns:sodipodi="http://sodipodi.sourceforge.net/DTD/sodipodi-0.dtd"
   xmlns="http://www.w3.org/2000/svg"
   xmlns:svg="http://www.w3.org/2000/svg"><defs
     id="defs8" /><sodipodi:namedview
     id="namedview6"
     pagecolor="#ffffff"
     bordercolor="#000000"
     borderopacity="0.25"
     inkscape:showpageshadow="2"
     inkscape:pageopacity="0.0"
     inkscape:pagecheckerboard="0"
     inkscape:deskcolor="#d1d1d1"
     showgrid="false"
     inkscape:zoom="8.6666667"
     inkscape:cx="-3.8653846"
     inkscape:cy="24.288461"
     inkscape:window-width="1920"
     inkscape:window-height="1011"
     inkscape:window-x="0"
     inkscape:window-y="32"
     inkscape:window-maximized="1"
     inkscape:current-layer="svg4" /><rect
     style="fill:#5e35b1;fill-opacity:1;stroke:none;stroke-linecap:round"
     id="rect897"
     width="48"
     height="48"
     x="0"
     y="0"
     ry="8" /><path
     d="M 30.6,42 17.45,37.35 8.5000001,40.9 Q 7.65,41.35 6.825,40.85 6,40.35 6,39.35 V 11.45 Q 6,10.8 6.375,10.3 6.75,9.8 7.35,9.55 L 17.45,6 30.6,10.6 39.5,7.05 Q 40.35,6.65 41.175,7.125 42,7.6 42,8.6 V 36.85 Q 42,37.4 41.625,37.8 41.25,38.2 40.7,38.4 Z M 28.9,38.25 V 13 L 19.1,9.7 v 25.25 z m 3,0 L 39,35.9 V 10.3 L 31.9,13 Z M 9,37.65 16.1,34.95 V 9.7 L 9,12.05 Z M 31.9,13 V 38.25 Z M 16.1,9.7 v 25.25 z"
     id="path370"
     style="fill:#ffffff" /></svg>
