<?xml version="1.0" encoding="UTF-8" standalone="no"?>
<svg
   height="48"
   width="48"
   version="1.1"
   id="svg4"
   sodipodi:docname="map-w.svg"
   inkscape:version="1.2.2 (b0a8486541, 2022-12-01)"
   xml:space="preserve"
   xmlns:inkscape="http://www.inkscape.org/namespaces/inkscape"
   xmlns:sodipodi="http://sodipodi.sourceforge.net/DTD/sodipodi-0.dtd"
   xmlns="http://www.w3.org/2000/svg"
   xmlns:svg="http://www.w3.org/2000/svg"><defs
     id="defs8" /><sodipodi:namedview
     id="namedview6"
     pagecolor="#ffffff"
     bordercolor="#000000"
     borderopacity="0.25"
     inkscape:showpageshadow="2"
     inkscape:pageopacity="0.0"
     inkscape:pagecheckerboard="0"
     inkscape:deskcolor="#d1d1d1"
     showgrid="false"
     inkscape:zoom="8.6666667"
     inkscape:cx="-17.596154"
     inkscape:cy="24.288461"
     inkscape:window-width="1920"
     inkscape:window-height="1011"
     inkscape:window-x="0"
     inkscape:window-y="32"
     inkscape:window-maximized="1"
     inkscape:current-layer="svg4" /><rect
     style="fill:#5e35b1;fill-opacity:1;stroke:none;stroke-linecap:round"
     id="rect897"
     width="48"
     height="48"
     x="0"
     y="0"
     ry="8" /><path
     d="m 29.866667,40 -11.688889,-4.133333 -7.955556,3.155555 q -0.7555553,0.4 -1.4888887,-0.04444 Q 8,38.533333 8,37.644444 v -24.8 Q 8,12.266667 8.3333333,11.822222 8.6666667,11.377778 9.2,11.155556 L 18.177778,8 29.866667,12.088889 37.777778,8.9333333 Q 38.533333,8.5777778 39.266667,9 40,9.4222222 40,10.311111 v 25.111111 q 0,0.488889 -0.333333,0.844445 Q 39.333333,36.622222 38.844444,36.8 Z M 28.355556,36.666667 V 14.222222 l -8.711112,-2.933333 v 22.444444 z m 2.666666,0 6.311111,-2.088889 V 11.822222 l -6.311111,2.4 z m -20.355555,-0.533334 6.311111,-2.4 V 11.288889 l -6.311111,2.088889 z M 31.022222,14.222222 V 36.666667 Z M 16.977778,11.288889 v 22.444444 z"
     id="path370"
     style="fill:#ffffff;stroke-width:0.888889" /></svg>
