<?xml version="1.0" encoding="UTF-8" standalone="no"?>
<svg
   height="48"
   width="48"
   version="1.1"
   id="svg4"
   sodipodi:docname="pergola-w.svg"
   inkscape:version="1.2.2 (b0a8486541, 2022-12-01)"
   xml:space="preserve"
   xmlns:inkscape="http://www.inkscape.org/namespaces/inkscape"
   xmlns:sodipodi="http://sodipodi.sourceforge.net/DTD/sodipodi-0.dtd"
   xmlns="http://www.w3.org/2000/svg"
   xmlns:svg="http://www.w3.org/2000/svg"><defs
     id="defs8" /><sodipodi:namedview
     id="namedview6"
     pagecolor="#ffffff"
     bordercolor="#000000"
     borderopacity="0.25"
     inkscape:showpageshadow="2"
     inkscape:pageopacity="0.0"
     inkscape:pagecheckerboard="0"
     inkscape:deskcolor="#d1d1d1"
     showgrid="false"
     inkscape:zoom="8.6666667"
     inkscape:cx="-3.8653846"
     inkscape:cy="24.288461"
     inkscape:window-width="1920"
     inkscape:window-height="1011"
     inkscape:window-x="0"
     inkscape:window-y="32"
     inkscape:window-maximized="1"
     inkscape:current-layer="svg4" /><rect
     style="fill:#5e35b1;fill-opacity:1;stroke:none;stroke-linecap:round"
     id="rect897"
     width="48"
     height="48"
     x="0"
     y="0"
     ry="8" /><path
     d="M 6,43 V 6.5 Q 6,5.95 6.425,5.475 6.85,5 7.5000002,5 q 0.6999999,0 1.1,0.475 0.4,0.475 0.4,1.025 V 9 H 39 V 6.5 Q 39,5.95 39.475,5.475 39.95,5 40.5,5 41.05,5 41.525,5.475 42,5.95 42,6.5 V 43 H 39 V 20 H 9.0000002 V 43 Z M 9.0000002,17 H 39 V 12 H 9.0000002 Z M 22.5,43 v -6.5 h -6 v -3 h 15 v 3 h -6 V 43 Z M 9.0000002,12 H 39 Z"
     id="path400"
     style="fill:#ffffff" /></svg>
