<?xml version="1.0" encoding="UTF-8" standalone="no"?>
<svg
   height="48"
   width="48"
   version="1.1"
   id="svg4"
   sodipodi:docname="pergola-w.svg"
   inkscape:version="1.2.2 (b0a8486541, 2022-12-01)"
   xml:space="preserve"
   inkscape:export-filename="pergola-w.png"
   inkscape:export-xdpi="384"
   inkscape:export-ydpi="384"
   xmlns:inkscape="http://www.inkscape.org/namespaces/inkscape"
   xmlns:sodipodi="http://sodipodi.sourceforge.net/DTD/sodipodi-0.dtd"
   xmlns="http://www.w3.org/2000/svg"
   xmlns:svg="http://www.w3.org/2000/svg"><defs
     id="defs8" /><sodipodi:namedview
     id="namedview6"
     pagecolor="#ffffff"
     bordercolor="#000000"
     borderopacity="0.25"
     inkscape:showpageshadow="2"
     inkscape:pageopacity="0.0"
     inkscape:pagecheckerboard="0"
     inkscape:deskcolor="#d1d1d1"
     showgrid="false"
     inkscape:zoom="8.6666667"
     inkscape:cx="10.038461"
     inkscape:cy="24.403846"
     inkscape:window-width="1579"
     inkscape:window-height="749"
     inkscape:window-x="114"
     inkscape:window-y="137"
     inkscape:window-maximized="0"
     inkscape:current-layer="svg4" /><rect
     style="fill:#5e35b1;fill-opacity:1;stroke:none;stroke-linecap:round"
     id="rect897"
     width="48"
     height="48"
     x="0"
     y="0"
     ry="8" /><path
     d="M 8,40 V 9.2631579 Q 8,8.8 8.3777778,8.4 8.7555556,8 9.3333335,8 9.9555556,8 10.311111,8.4 10.666667,8.8 10.666667,9.2631579 V 11.368421 H 37.333333 V 9.2631579 Q 37.333333,8.8 37.755556,8.4 38.177778,8 38.666667,8 39.155556,8 39.577778,8.4 40,8.8 40,9.2631579 V 40 H 37.333333 V 20.631579 H 10.666667 V 40 Z M 10.666667,18.105263 H 37.333333 V 13.894737 H 10.666667 Z M 22.666667,40 V 34.526316 H 17.333333 V 32 h 13.333334 v 2.526316 H 25.333333 V 40 Z m -12,-26.105263 h 26.666666 z"
     id="path400"
     style="fill:#ffffff;stroke-width:0.865181"
     inkscape:export-filename="path400.png"
     inkscape:export-xdpi="576"
     inkscape:export-ydpi="576" /></svg>
