<?xml version="1.0" encoding="UTF-8" standalone="no"?>
<svg
   height="48"
   width="48"
   version="1.1"
   id="svg4"
   sodipodi:docname="route-w.svg"
   inkscape:version="1.2.2 (b0a8486541, 2022-12-01)"
   xml:space="preserve"
   xmlns:inkscape="http://www.inkscape.org/namespaces/inkscape"
   xmlns:sodipodi="http://sodipodi.sourceforge.net/DTD/sodipodi-0.dtd"
   xmlns="http://www.w3.org/2000/svg"
   xmlns:svg="http://www.w3.org/2000/svg"><defs
     id="defs8" /><sodipodi:namedview
     id="namedview6"
     pagecolor="#ffffff"
     bordercolor="#000000"
     borderopacity="0.25"
     inkscape:showpageshadow="2"
     inkscape:pageopacity="0.0"
     inkscape:pagecheckerboard="0"
     inkscape:deskcolor="#d1d1d1"
     showgrid="false"
     inkscape:zoom="8.6666667"
     inkscape:cx="-3.8653846"
     inkscape:cy="24.288461"
     inkscape:window-width="1920"
     inkscape:window-height="1011"
     inkscape:window-x="0"
     inkscape:window-y="32"
     inkscape:window-maximized="1"
     inkscape:current-layer="svg4" /><rect
     style="fill:#5e35b1;fill-opacity:1;stroke:none;stroke-linecap:round"
     id="rect897"
     width="48"
     height="48"
     x="0"
     y="0"
     ry="8" /><path
     d="M 17.75,42 Q 14.5,42 12.25,39.725 10,37.45 10,34.25 V 16.8 Q 8.25,16.15 7.125,14.725 6,13.3 6,11.5 6,9.2 7.625,7.6 9.25,6 11.55,6 13.8,6 15.4,7.6 17,9.2 17,11.5 17,13.3 15.875,14.725 14.75,16.15 13,16.8 v 17.45 q 0,1.95 1.375,3.35 1.375,1.4 3.425,1.4 2,0 3.35,-1.4 1.35,-1.4 1.35,-3.35 v -20.5 q 0,-3.25 2.25,-5.5 Q 27,6 30.25,6 33.5,6 35.75,8.25 38,10.5 38,13.75 V 31.2 q 1.75,0.65 2.875,2.075 Q 42,34.7 42,36.5 42,38.75 40.4,40.375 38.8,42 36.5,42 34.25,42 32.625,40.375 31,38.75 31,36.5 31,34.7 32.125,33.25 33.25,31.8 35,31.2 V 13.75 q 0,-2 -1.375,-3.375 Q 32.25,9 30.25,9 28.25,9 26.875,10.375 25.5,11.75 25.5,13.75 v 20.5 q 0,3.2 -2.25,5.475 Q 21,42 17.75,42 Z m -6.2,-28 q 1,0 1.725,-0.75 Q 14,12.5 14,11.45 14,10.45 13.275,9.725 12.55,9 11.5,9 10.5,9 9.75,9.725 9,10.45 9,11.5 q 0,1 0.75,1.75 0.75,0.75 1.8,0.75 z m 25,25 q 1,0 1.725,-0.75 Q 39,37.5 39,36.45 39,35.45 38.275,34.725 37.55,34 36.5,34 35.5,34 34.75,34.725 34,35.45 34,36.5 q 0,1 0.75,1.75 Q 35.5,39 36.55,39 Z M 11.5,11.5 Z m 25,25 z"
     id="path288"
     style="fill:#ffffff" /></svg>
