<?xml version="1.0" encoding="UTF-8" standalone="no"?>
<svg
   height="48"
   width="48"
   version="1.1"
   id="svg4"
   sodipodi:docname="route-w.svg"
   inkscape:version="1.2.2 (b0a8486541, 2022-12-01)"
   xml:space="preserve"
   inkscape:export-filename="route-w.png"
   inkscape:export-xdpi="384"
   inkscape:export-ydpi="384"
   xmlns:inkscape="http://www.inkscape.org/namespaces/inkscape"
   xmlns:sodipodi="http://sodipodi.sourceforge.net/DTD/sodipodi-0.dtd"
   xmlns="http://www.w3.org/2000/svg"
   xmlns:svg="http://www.w3.org/2000/svg"><defs
     id="defs8" /><sodipodi:namedview
     id="namedview6"
     pagecolor="#ffffff"
     bordercolor="#000000"
     borderopacity="0.25"
     inkscape:showpageshadow="2"
     inkscape:pageopacity="0.0"
     inkscape:pagecheckerboard="0"
     inkscape:deskcolor="#d1d1d1"
     showgrid="false"
     inkscape:zoom="8.6666667"
     inkscape:cx="-30.519231"
     inkscape:cy="24.519231"
     inkscape:window-width="1579"
     inkscape:window-height="749"
     inkscape:window-x="67"
     inkscape:window-y="157"
     inkscape:window-maximized="0"
     inkscape:current-layer="svg4" /><rect
     style="fill:#5e35b1;fill-opacity:1;stroke:none;stroke-linecap:round"
     id="rect897"
     width="48"
     height="48"
     x="0"
     y="0"
     ry="8" /><path
     d="m 18.444444,40 q -2.888888,0 -4.888888,-2.022222 -2,-2.022222 -2,-4.866667 V 17.6 Q 10,17.022222 9,15.755556 8,14.488889 8,12.888889 8,10.844444 9.4444444,9.4222222 10.888889,8 12.933333,8 q 2,0 3.422223,1.4222222 1.422222,1.4222218 1.422222,3.4666668 0,1.6 -1,2.866667 -1,1.266666 -2.555556,1.844444 v 15.511111 q 0,1.733333 1.222222,2.977778 1.222223,1.244444 3.044445,1.244444 1.777778,0 2.977778,-1.244444 1.2,-1.244445 1.2,-2.977778 V 14.888889 q 0,-2.888889 2,-4.888889 2,-2 4.888889,-2 2.888888,0 4.888888,2 2,2 2,4.888889 V 30.4 Q 38,30.977778 39,32.244444 q 1,1.266667 1,2.866667 0,2 -1.422222,3.444445 Q 37.155556,40 35.111111,40 q -2,0 -3.444444,-1.444444 -1.444445,-1.444445 -1.444445,-3.444445 0,-1.6 1,-2.888889 1,-1.288889 2.555556,-1.822222 V 14.888889 q 0,-1.777778 -1.222222,-3 -1.222223,-1.222222 -3,-1.222222 -1.777778,0 -3,1.222222 -1.222223,1.222222 -1.222223,3 v 18.222222 q 0,2.844445 -2,4.866667 Q 21.333333,40 18.444444,40 Z M 12.933333,15.111111 q 0.888889,0 1.533334,-0.666667 0.644444,-0.666666 0.644444,-1.6 0,-0.888888 -0.644444,-1.533333 -0.644445,-0.644444 -1.577778,-0.644444 -0.888889,0 -1.555556,0.644444 -0.666666,0.644445 -0.666666,1.577778 0,0.888889 0.666666,1.555555 0.666667,0.666667 1.6,0.666667 z m 22.222223,22.222222 q 0.888888,0 1.533333,-0.666666 0.644444,-0.666667 0.644444,-1.6 0,-0.888889 -0.644444,-1.533334 -0.644445,-0.644444 -1.577778,-0.644444 -0.888889,0 -1.555555,0.644444 -0.666667,0.644445 -0.666667,1.577778 0,0.888889 0.666667,1.555556 0.666666,0.666666 1.6,0.666666 z M 12.888889,12.888889 Z m 22.222222,22.222222 z"
     id="path288"
     style="fill:#ffffff;stroke-width:0.888889" /></svg>
